<?xml version="1.0" standalone="no"?>
<!DOCTYPE svg PUBLIC "-//W3C//DTD SVG 20010904//EN"
 "http://www.w3.org/TR/2001/REC-SVG-20010904/DTD/svg10.dtd">
<svg version="1.0" xmlns="http://www.w3.org/2000/svg"
 width="540.000000pt" height="360.000000pt" viewBox="0 0 540.000000 360.000000"
 preserveAspectRatio="xMidYMid meet">

<g transform="translate(0.000000,360.000000) scale(0.100000,-0.100000)"
fill="#000000" stroke="none">
<path d="M3561 2708 c-221 -31 -396 -141 -734 -461 -159 -150 -245 -224 -329
-284 -54 -38 -63 -53 -31 -53 8 0 11 5 8 10 -3 6 -1 10 5 10 6 0 13 -7 16 -15
3 -8 31 -29 61 -47 31 -18 65 -39 77 -45 12 -7 20 -17 19 -23 -5 -18 22 -10
70 20 26 17 52 30 56 30 5 0 16 -19 24 -42 77 -222 218 -630 228 -656 l11 -34
141 4 140 3 136 395 137 395 -115 3 c-64 1 -117 -1 -120 -7 -3 -5 -44 -131
-90 -280 -46 -149 -87 -268 -90 -265 -3 3 -45 127 -92 277 l-85 272 -64 5 -64
5 118 89 c164 124 272 189 371 225 88 32 237 56 280 45 l25 -6 0 221 0 221
-22 -1 c-13 -1 -52 -6 -87 -11z m86 -65 c-4 -17 -4 -17 -12 0 -4 9 -4 25 0 35
8 16 8 16 12 0 3 -10 3 -26 0 -35z m-77 6 c0 -10 -4 -19 -10 -19 -5 0 -10 12
-10 26 0 14 4 23 10 19 6 -3 10 -15 10 -26z m40 6 c0 -14 -4 -25 -10 -25 -5 0
-10 11 -10 25 0 14 5 25 10 25 6 0 10 -11 10 -25z m-80 -10 c0 -14 -4 -25 -10
-25 -5 0 -10 11 -10 25 0 14 5 25 10 25 6 0 10 -11 10 -25z m-40 -11 c0 -14
-4 -23 -10 -19 -5 3 -10 15 -10 26 0 10 5 19 10 19 6 0 10 -12 10 -26z m-41
-11 c0 -25 -1 -26 -9 -8 -12 27 -12 35 0 35 6 0 10 -12 9 -27z m-42 -20 c-3
-10 -5 -4 -5 12 0 17 2 24 5 18 2 -7 2 -21 0 -30z m-27 -15 c0 -5 -4 -8 -10
-8 -5 0 -10 10 -10 23 0 18 2 19 10 7 5 -8 10 -18 10 -22z m-40 -5 c0 -22 -2
-25 -10 -13 -13 20 -13 40 0 40 6 0 10 -12 10 -27z m-37 -13 c3 -11 1 -23 -4
-26 -5 -3 -9 6 -9 20 0 31 6 34 13 6z m-34 -27 c0 -25 -1 -26 -9 -8 -12 27
-12 35 0 35 6 0 10 -12 9 -27z m-29 -25 c0 -5 -4 -8 -10 -8 -5 0 -10 10 -10
23 0 18 2 19 10 7 5 -8 10 -18 10 -22z m-37 -8 c3 -11 1 -20 -4 -20 -5 0 -9 9
-9 20 0 11 2 20 4 20 2 0 6 -9 9 -20z m-34 -27 c0 -25 -1 -25 -8 -8 -5 11 -7
23 -4 28 8 14 13 7 12 -20z m-29 -31 c0 -15 -2 -15 -10 -2 -13 20 -13 33 0 25
6 -3 10 -14 10 -23z m-30 -25 c0 -5 -4 -5 -10 -2 -5 3 -10 14 -10 23 0 15 2
15 10 2 5 -8 10 -19 10 -23z m-30 -30 c0 -5 -4 -5 -10 -2 -5 3 -10 14 -10 23
0 15 2 15 10 2 5 -8 10 -19 10 -23z m-37 -7 c3 -11 1 -20 -4 -20 -5 0 -9 9 -9
20 0 11 2 20 4 20 2 0 6 -9 9 -20z m-23 -43 c0 -5 -4 -5 -10 -2 -5 3 -10 14
-10 23 0 15 2 15 10 2 5 -8 10 -19 10 -23z m559 -4 c0 -25 -1 -25 -8 -8 -5 11
-7 23 -4 28 8 14 13 7 12 -20z m40 -15 c1 -5 -3 -8 -9 -8 -5 0 -10 12 -9 28 0
24 1 25 9 7 5 -11 9 -23 9 -27z m28 -5 c-3 -10 -5 -2 -5 17 0 19 2 27 5 18 2
-10 2 -26 0 -35z m-138 10 c0 -25 -1 -25 -8 -8 -5 11 -7 23 -4 28 8 14 13 7
12 -20z m28 -10 c-3 -10 -5 -4 -5 12 0 17 2 24 5 18 2 -7 2 -21 0 -30z m-553
12 c3 -8 1 -15 -4 -15 -6 0 -10 7 -10 15 0 8 2 15 4 15 2 0 6 -7 10 -15z m496
-22 c0 -7 -4 -13 -10 -13 -5 0 -10 12 -10 28 0 21 2 24 10 12 5 -8 10 -21 10
-27z m-43 -10 c-3 -10 -5 -4 -5 12 0 17 2 24 5 18 2 -7 2 -21 0 -30z m-30 -10
c-3 -10 -5 -4 -5 12 0 17 2 24 5 18 2 -7 2 -21 0 -30z m-453 12 c3 -8 1 -15
-4 -15 -6 0 -10 7 -10 15 0 8 2 15 4 15 2 0 6 -7 10 -15z m425 -12 c0 -25 -1
-26 -9 -8 -12 27 -12 35 0 35 6 0 10 -12 9 -27z m-29 -16 c0 -18 -2 -19 -10
-7 -13 20 -13 43 0 35 6 -3 10 -16 10 -28z m-420 -9 c0 -5 -4 -8 -10 -8 -5 0
-10 10 -10 23 0 18 2 19 10 7 5 -8 10 -18 10 -22z m390 0 c0 -19 -2 -20 -10
-8 -13 19 -13 30 0 30 6 0 10 -10 10 -22z m-30 -21 c0 -18 -2 -19 -10 -7 -13
20 -13 43 0 35 6 -3 10 -16 10 -28z m-390 -10 c0 -5 -4 -5 -10 -2 -5 3 -10 14
-10 23 0 15 2 15 10 2 5 -8 10 -19 10 -23z m360 1 c0 -19 -2 -20 -10 -8 -13
19 -13 30 0 30 6 0 10 -10 10 -22z m-31 -21 c0 -21 -1 -21 -9 -2 -12 28 -12
37 0 30 6 -3 10 -16 9 -28z m-365 8 c3 -8 1 -15 -3 -15 -5 0 -11 7 -15 15 -3
8 -1 15 3 15 5 0 11 -7 15 -15z m336 -15 c0 -11 -2 -20 -4 -20 -2 0 -6 9 -9
20 -3 11 -1 20 4 20 5 0 9 -9 9 -20z m-366 -15 c3 -8 1 -15 -3 -15 -5 0 -11 7
-15 15 -3 8 -1 15 3 15 5 0 11 -7 15 -15z m339 -5 c3 -11 1 -20 -4 -20 -5 0
-9 9 -9 20 0 11 2 20 4 20 2 0 6 -9 9 -20z m-23 -33 c0 -5 -4 -5 -10 -2 -5 3
-10 14 -10 23 0 15 2 15 10 2 5 -8 10 -19 10 -23z m-345 12 c11 -17 -1 -21
-15 -4 -8 9 -8 15 -2 15 6 0 14 -5 17 -11z m315 -27 c0 -15 -2 -15 -10 -2 -13
20 -13 33 0 25 6 -3 10 -14 10 -23z m-340 -16 c0 -5 -7 -3 -15 4 -8 7 -12 17
-9 22 7 10 24 -9 24 -26z m310 4 c0 -11 -2 -20 -4 -20 -2 0 -6 9 -9 20 -3 11
-1 20 4 20 5 0 9 -9 9 -20z m-346 -15 c3 -8 1 -15 -3 -15 -5 0 -11 7 -15 15
-3 8 -1 15 3 15 5 0 11 -7 15 -15z m326 -18 c0 -5 -4 -5 -10 -2 -5 3 -10 14
-10 23 0 15 2 15 10 2 5 -8 10 -19 10 -23z m-30 -22 c0 -5 -5 -3 -10 5 -5 8
-10 20 -10 25 0 6 5 3 10 -5 5 -8 10 -19 10 -25z m-322 7 c6 -18 -15 -14 -22
4 -4 10 -1 14 6 12 6 -2 14 -10 16 -16z m292 -20 c0 -15 -2 -15 -10 -2 -13 20
-13 33 0 25 6 -3 10 -14 10 -23z m-325 -2 c3 -5 2 -10 -4 -10 -5 0 -13 5 -16
10 -3 6 -2 10 4 10 5 0 13 -4 16 -10z m305 -21 c0 -6 -4 -7 -10 -4 -5 3 -10
11 -10 16 0 6 5 7 10 4 6 -3 10 -11 10 -16z m-334 -16 c-7 -7 -26 7 -26 19 0
6 6 6 15 -2 9 -7 13 -15 11 -17z m304 -6 c0 -5 -4 -5 -10 -2 -5 3 -10 14 -10
23 0 15 2 15 10 2 5 -8 10 -19 10 -23z m-335 -7 c3 -5 2 -10 -4 -10 -5 0 -13
5 -16 10 -3 6 -2 10 4 10 5 0 13 -4 16 -10z m305 -5 c0 -8 -2 -15 -4 -15 -2 0
-6 7 -10 15 -3 8 -1 15 4 15 6 0 10 -7 10 -15z m-340 -26 c0 -6 -4 -7 -10 -4
-5 3 -10 11 -10 16 0 6 5 7 10 4 6 -3 10 -11 10 -16z m314 5 c5 -14 4 -15 -9
-4 -17 14 -19 20 -6 20 5 0 12 -7 15 -16z m-24 -25 c0 -6 -4 -7 -10 -4 -5 3
-10 11 -10 16 0 6 5 7 10 4 6 -3 10 -11 10 -16z m-30 -20 c0 -6 -4 -7 -10 -4
-5 3 -10 11 -10 16 0 6 5 7 10 4 6 -3 10 -11 10 -16z m-325 1 c3 -5 2 -10 -4
-10 -5 0 -13 5 -16 10 -3 6 -2 10 4 10 5 0 13 -4 16 -10z m295 -10 c0 -5 -2
-10 -4 -10 -3 0 -8 5 -11 10 -3 6 -1 10 4 10 6 0 11 -4 11 -10z m-50 -51 c0
-6 -4 -7 -10 -4 -5 3 -10 11 -10 16 0 6 5 7 10 4 6 -3 10 -11 10 -16z m-30
-14 c7 -9 8 -15 2 -15 -5 0 -12 7 -16 15 -3 8 -4 15 -2 15 2 0 9 -7 16 -15z
m-25 -16 c11 -17 -1 -21 -15 -4 -8 9 -8 15 -2 15 6 0 14 -5 17 -11z m-30 -19
c3 -5 2 -10 -4 -10 -5 0 -13 5 -16 10 -3 6 -2 10 4 10 5 0 13 -4 16 -10z"/>
<path d="M878 1529 c-2 -215 0 -395 3 -401 4 -6 48 -8 110 -6 l104 3 5 210 5
210 71 -210 71 -210 93 0 93 0 73 210 73 210 3 -210 3 -210 110 0 110 0 3 398
2 398 -137 -3 -137 -3 -95 -252 c-53 -139 -98 -249 -101 -245 -4 4 -49 118
-101 254 l-94 248 -132 0 -133 0 -2 -391z"/>
<path d="M3670 1520 l0 -401 108 3 107 3 3 398 2 397 -110 0 -110 0 0 -400z"/>
<path d="M4020 1520 l0 -400 253 3 252 2 3 88 3 87 -146 0 -145 0 0 75 0 75
125 0 125 0 0 80 0 80 -125 0 -125 0 0 65 0 64 143 3 142 3 3 88 3 87 -256 0
-255 0 0 -400z"/>
<path d="M2202 1820 c-64 -60 -13 -162 73 -146 41 8 65 38 65 84 0 69 -88 109
-138 62z"/>
<path d="M2395 1815 c-35 -34 -33 -78 5 -117 26 -25 36 -29 63 -24 41 8 77 48
77 87 0 43 -39 79 -85 79 -25 0 -44 -8 -60 -25z"/>
<path d="M1973 1757 c-32 -35 -56 -77 -49 -84 4 -4 9 2 12 14 4 14 11 20 21
16 12 -5 14 -1 8 17 -5 16 -4 20 4 16 7 -4 10 -2 9 5 -2 7 3 13 10 14 6 0 12
4 13 8 2 18 -8 16 -28 -6z"/>
<path d="M2564 1700 c-12 -5 -29 -19 -38 -32 -59 -84 56 -176 129 -103 62 61
-11 168 -91 135z"/>
<path d="M2063 1678 c-30 -34 -34 -55 -18 -94 35 -84 159 -59 159 31 0 74 -93
115 -141 63z"/>
<path d="M1901 1629 c-6 -18 -11 -41 -10 -53 0 -12 6 2 14 29 15 57 13 72 -4
24z"/>
<path d="M1931 1634 c0 -11 3 -14 6 -6 3 7 2 16 -1 19 -3 4 -6 -2 -5 -13z"/>
<path d="M2306 1595 c-38 -35 -37 -96 3 -136 62 -61 161 -14 161 77 0 15 -12
38 -29 55 -39 38 -96 40 -135 4z m118 -6 c20 -16 26 -29 26 -58 0 -100 -137
-113 -156 -14 -5 27 -1 37 24 63 36 35 69 38 106 9z"/>
<path d="M1922 1560 c0 -14 2 -19 5 -12 2 6 2 18 0 25 -3 6 -5 1 -5 -13z"/>
<path d="M2085 1498 c-32 -19 -44 -40 -45 -79 0 -60 62 -97 125 -73 25 10 47
62 40 94 -11 52 -77 84 -120 58z"/>
<path d="M2536 1484 c-36 -36 -36 -86 0 -119 56 -52 144 -16 144 57 -1 78 -89
116 -144 62z"/>
<path d="M1922 1465 c0 -16 2 -22 5 -12 2 9 2 23 0 30 -3 6 -5 -1 -5 -18z"/>
<path d="M1891 1458 c-1 -36 35 -133 57 -149 14 -11 15 -11 5 1 -18 19 -16 31
3 23 13 -5 15 -3 7 13 -6 10 -13 26 -17 34 -3 8 -4 5 -2 -7 2 -13 0 -25 -4
-28 -8 -5 -35 66 -43 115 -4 25 -4 25 -6 -2z"/>
<path d="M2205 1345 c-36 -35 -35 -96 1 -124 40 -32 87 -28 119 11 21 25 25
38 21 62 -13 69 -94 99 -141 51z"/>
<path d="M2399 1341 c-17 -18 -29 -40 -29 -56 0 -38 50 -85 90 -85 44 0 80 39
80 85 0 79 -84 112 -141 56z"/>
<path d="M1984 1273 c2 -10 6 -17 10 -16 15 3 16 11 2 22 -12 10 -14 9 -12 -6z"/>
<path d="M2010 1246 c0 -2 8 -10 18 -17 15 -13 16 -12 3 4 -13 16 -21 21 -21
13z"/>
<path d="M2040 1206 c0 -2 7 -7 16 -10 8 -3 12 -2 9 4 -6 10 -25 14 -25 6z"/>
<path d="M2040 1177 c-109 -21 -148 -37 -179 -72 -17 -20 -31 -40 -31 -45 0
-6 35 -10 80 -10 73 0 106 -12 63 -23 -10 -2 2 -8 27 -12 34 -6 40 -10 25 -15
-12 -4 17 -10 74 -15 73 -6 97 -11 109 -26 20 -23 38 -24 50 -3 13 23 48 13
103 -31 l44 -35 5 28 c3 18 12 28 27 30 17 3 23 -3 28 -30 l8 -33 27 34 c15
18 29 28 31 22 3 -7 28 1 64 19 33 16 93 39 133 51 40 12 75 26 78 30 3 5 -14
9 -38 10 l-43 1 45 16 45 16 -55 12 c-48 10 -51 12 -20 13 79 3 55 18 -54 35
l-114 18 -66 -26 c-125 -50 -251 -43 -370 22 -45 24 -57 26 -96 19z"/>
</g>
</svg>
