<?xml version="1.0" encoding="iso-8859-1"?>
<!-- Uploaded to: SVG Repo, www.svgrepo.com, Generator: SVG Repo Mixer Tools -->
<svg height="800px" width="800px" version="1.1" id="Layer_1" xmlns="http://www.w3.org/2000/svg" xmlns:xlink="http://www.w3.org/1999/xlink" 
	 viewBox="0 0 512 512" xml:space="preserve">
<g>
	<path style="fill:#ED8C18;" d="M256.002,243.787l20.404,36.155l39.754,7.553l-28.079,30.577l5.099,40.143l-37.758-17.258
		l-36.6,17.258l4.738-41.24l-27.718-29.48l40.689-8.234L256.002,243.787L256.002,243.787z M339.212,170.11L256.002,22.676
		L176.6,167.338L10.668,200.923l113.048,120.211l-19.34,168.19l149.269-70.368l153.981,70.368l-20.795-163.706l114.502-124.695
		L339.212,170.11z"/>
	<polygon style="fill:#D12D4E;" points="276.405,279.942 256.002,243.787 236.531,279.261 195.844,287.494 223.562,316.974 
		218.823,358.214 255.422,340.957 293.18,358.214 288.08,318.071 316.16,287.494 	"/>
</g>
<g>
	<path style="fill:#000003;" d="M511.459,197.567c-1.219-3.674-4.332-6.4-8.134-7.124l-157.256-29.888L265.291,17.433
		c-1.892-3.354-5.444-5.424-9.289-5.424c-0.021,0-0.043,0-0.064,0c-3.871,0.022-7.427,2.141-9.288,5.535l-77.018,140.32
		L8.552,190.468c-3.794,0.768-6.874,3.531-8.049,7.22c-1.174,3.689-0.258,7.723,2.394,10.544l109.656,116.603L93.778,488.106
		c-0.442,3.846,1.233,7.629,4.379,9.886c1.844,1.324,4.025,2,6.219,2c1.546,0,3.1-0.336,4.549-1.019l144.787-68.256l149.478,68.31
		c3.521,1.608,7.637,1.183,10.755-1.11c3.119-2.292,4.749-6.096,4.262-9.936l-20.172-158.794l111.153-121.048
		C511.809,205.288,512.676,201.241,511.459,197.567z M378.972,318.403c-2.124,2.313-3.12,5.445-2.726,8.56l18.381,144.694
		l-136.549-62.403c-1.408-0.643-2.921-0.964-4.433-0.964c-1.555,0-3.11,0.339-4.55,1.019l-131.931,62.195l17.15-149.149
		c0.359-3.12-0.676-6.239-2.826-8.527l-99.92-106.249l147.148-29.785c3.078-0.622,5.725-2.57,7.236-5.322l70.178-127.859
		l73.792,130.744c1.543,2.734,4.213,4.65,7.298,5.237l143.292,27.234L378.972,318.403z"/>
	<path style="fill:#000003;" d="M331.588,212.091c-1.1,5.788,2.7,11.372,8.488,12.471l75.991,14.445
		c0.673,0.128,1.344,0.19,2.004,0.19c5.021,0,9.495-3.563,10.468-8.678c1.1-5.788-2.7-11.372-8.488-12.471l-75.991-14.445
		C338.274,202.503,332.689,206.302,331.588,212.091z"/>
	<path style="fill:#000003;" d="M309.756,218.804l0.375,0.073c0.688,0.133,1.372,0.198,2.047,0.198
		c5.003,0,9.468-3.537,10.461-8.633c1.124-5.784-2.652-11.383-8.436-12.509l-0.375-0.073c-5.784-1.125-11.382,2.652-12.508,8.435
		C300.196,212.079,303.972,217.679,309.756,218.804z"/>
	<path style="fill:#000003;" d="M318.15,277.014l-34.889-6.629l-17.969-31.842c-1.892-3.353-5.445-5.424-9.29-5.424
		c-0.021,0-0.043,0-0.064,0c-3.871,0.022-7.427,2.141-9.289,5.534l-17.087,31.133l-35.835,7.252
		c-3.794,0.768-6.874,3.532-8.05,7.221c-1.173,3.688-0.258,7.723,2.394,10.544l24.329,25.872l-4.175,36.322
		c-0.442,3.846,1.233,7.629,4.38,9.887c3.146,2.257,7.267,2.632,10.768,0.981l32.121-15.145l33.253,15.198
		c1.416,0.648,2.927,0.965,4.433,0.965c2.236,0,4.458-0.703,6.322-2.074c3.119-2.293,4.749-6.098,4.262-9.938l-4.476-35.229
		l24.731-26.93c2.618-2.851,3.485-6.898,2.268-10.571C325.067,280.463,321.953,277.738,318.15,277.014z M280.222,310.857
		c-2.123,2.313-3.121,5.444-2.726,8.56l2.686,21.128l-20.325-9.289c-1.408-0.644-2.921-0.965-4.433-0.965
		c-1.555,0-3.111,0.339-4.551,1.019l-19.264,9.083l2.553-22.199c0.358-3.12-0.676-6.239-2.827-8.526l-14.592-15.518l21.902-4.431
		c3.079-0.623,5.725-2.571,7.236-5.323l10.248-18.672l10.984,19.464c1.544,2.734,4.213,4.65,7.299,5.237l20.924,3.976
		L280.222,310.857z"/>
</g>
</svg>